<svg xmlns="http://www.w3.org/2000/svg" width="33.426" height="27.825" viewBox="0 0 33.426 27.825"><g transform="translate(-21.6 -148.468)"><path d="M31.578-28.308c2.547,0,1.256-1.628,1.256-1.628l-1.256-1.628-1.256,1.628S29.031-28.308,31.578-28.308Zm.346-17.257s-6.166,3.81-8.945,5.541C20.531-38.5,16.242-35.8,16.242-35.8L.535-45.565l15.708-9.768,15.681,9.769Zm-.359,0v14.1" transform="translate(21.465 204.201)" fill="#fff" stroke="#353740" stroke-linecap="round" stroke-linejoin="round" stroke-width="0.8" fill-rule="evenodd"/><path d="M31.971-29.211v6.938S29.778-16.489,21.3-16.489s-10.672-5.784-10.672-5.784V-29.25l10.731,6.673s4.288-2.7,6.735-4.227c1-.624,2.444-1.518,3.878-2.406Z" transform="translate(16.35 190.982)" fill="#fff" stroke="#353740" stroke-linecap="round" stroke-linejoin="round" stroke-width="0.8" fill-rule="evenodd"/></g></svg>