<svg xmlns="http://www.w3.org/2000/svg" width="23.379" height="34.149" viewBox="0 0 23.379 34.149"><g transform="translate(-0.1 85.901)"><path d="M25.9-38.573a1.685,1.685,0,0,0,.8,2.117c-.619,1.293-2.627,2.4-4.69,2.4s-4.262-1.114-4.69-2.4a1.64,1.64,0,0,0,.789-2.117H25.9Z" transform="translate(-10.223 -28.516)" fill="#fff" stroke="#434552" stroke-linecap="round" stroke-linejoin="round" stroke-width="0.8"/><path d="M19.426-61.586H18.154a4.157,4.157,0,0,1-2.945-1.23l-.972-.958a7.685,7.685,0,0,1-2.227-5.414v-5.041c0-6.764,13.548-6.764,13.548,0v5.041a7.685,7.685,0,0,1-2.226,5.414l-.955.961A4.158,4.158,0,0,1,19.426-61.586Z" transform="translate(-6.994 -3.766)" fill="#fff" stroke="#434552" stroke-linecap="round" stroke-linejoin="round" stroke-width="0.8"/><path d="M9.858-57.454v-2.758c0-.919-.7-1.225-1.127-.919-.685.469.188,2.451.188,2.451C8.412-58.361,8.985-57.231,9.858-57.454ZM23.406-57.8V-60.56c0-.919.694-1.226,1.127-.919.685.469-.188,2.451-.188,2.451C24.855-58.709,24.28-57.576,23.406-57.8Z" transform="translate(-4.842 -14.527)" fill="#fff" stroke="#434552" stroke-linecap="round" stroke-linejoin="round" stroke-width="0.8"/><path d="M20.63-84.963c2.275.977,5.312,3.707,4.067,7.734-.183.6-.448.388-.744.335,0,0-.047-2.35-1.18-2.108-2.7.574-4.025-1.623-7.3.786a3.011,3.011,0,0,1,1.012-3.378c-2.7,0-6.105,1.677-6.105,3.692,0,0-.9-.676-.977-1.342-.339-3.008,1.185-4.539,3.847-5.686A12.681,12.681,0,0,1,20.63-84.963Z" transform="translate(-5.381)" fill="#fff" stroke="#434552" stroke-linecap="round" stroke-linejoin="round" stroke-width="0.8"/><path d="M37.323-58.052a.521.521,0,0,1,.521.521.521.521,0,0,1-.521.521.521.521,0,0,1-.521-.521A.521.521,0,0,1,37.323-58.052Z" transform="translate(-22.059 -16.679)" fill="#fff" stroke="#434552" stroke-linecap="round" stroke-linejoin="round" stroke-width="0.8"/><path d="M19.615-58.052a.521.521,0,0,1,.521.521.521.521,0,0,1-.521.521.521.521,0,0,1-.521-.521A.521.521,0,0,1,19.615-58.052Z" transform="translate(-11.299 -16.679)" fill="#fff" stroke="#434552" stroke-linecap="round" stroke-linejoin="round" stroke-width="0.8"/><path d="M18.507-32.513s-2.006-.789-1.928-.745c-.63,1.334-2.751,2.483-4.789,2.483s-4.326-1.149-4.8-2.469l-1.845.76A7.405,7.405,0,0,0,.5-25.651v5.243H23.08v-5.3A7.4,7.4,0,0,0,18.507-32.513Z" transform="translate(0 -31.744)" fill="#fff" stroke="#434552" stroke-linecap="round" stroke-linejoin="round" stroke-width="0.8"/><path d="M14.224-28.086V-33.36m12.158,5.274V-33.36m-4.342-12.3a2.924,2.924,0,0,1-1.911,1.042,2.924,2.924,0,0,1-1.911-1.042" transform="translate(-8.34 -24.212)" fill="#fff" stroke="#434552" stroke-linecap="round" stroke-linejoin="round" stroke-width="0.8"/></g></svg>