<svg xmlns="http://www.w3.org/2000/svg" width="24" height="24" viewBox="0 0 24 24"><path d="M448.769-437.107l-.25.438,6.75,6.813-2.125,2.125-6.75-6.813-.438.313a9.912,9.912,0,0,1-5.188,1.563,9.55,9.55,0,0,1-9.5-9.563,9.5,9.5,0,0,1,9.5-9.5,9.5,9.5,0,0,1,9.5,9.5,9.648,9.648,0,0,1-1.5,5.125Zm-2.687-10.437a7.419,7.419,0,0,0-5.313-2.188,7.419,7.419,0,0,0-5.313,2.188,7.419,7.419,0,0,0-2.188,5.313,7.419,7.419,0,0,0,2.188,5.313,7.419,7.419,0,0,0,5.313,2.188,7.419,7.419,0,0,0,5.313-2.188,7.479,7.479,0,0,0,2.25-5.313A7.484,7.484,0,0,0,446.082-447.544Z" transform="translate(-431.268 451.731)" fill="#bebebe"/></svg>