<svg xmlns="http://www.w3.org/2000/svg" width="23.501" height="23.501" viewBox="0 0 23.501 23.501"><g transform="translate(0 80.999)" opacity="0.995"><path d="M22.936-71.151l-2.981-.294a8.415,8.415,0,0,0-.852-2.048l1.9-2.319a.629.629,0,0,0-.042-.839l-1.81-1.811a.627.627,0,0,0-.84-.041L16-76.6a8.422,8.422,0,0,0-2.048-.852l-.293-2.982A.628.628,0,0,0,13.031-81h-2.56a.629.629,0,0,0-.623.565l-.293,2.983a8.377,8.377,0,0,0-2.047.852L5.187-78.5a.622.622,0,0,0-.4-.142.622.622,0,0,0-.442.184l-1.81,1.811a.629.629,0,0,0-.042.839L4.4-73.493a8.384,8.384,0,0,0-.852,2.048l-2.983.294A.628.628,0,0,0,0-70.529v2.56a.625.625,0,0,0,.565.623l2.983.294A8.377,8.377,0,0,0,4.4-65.005L2.5-62.686a.626.626,0,0,0,.041.84l1.81,1.811a.628.628,0,0,0,.84.041l2.319-1.9a8.426,8.426,0,0,0,2.048.852l.293,2.982a.628.628,0,0,0,.623.565h2.56a.626.626,0,0,0,.623-.565l.293-2.982A8.365,8.365,0,0,0,16-61.9l2.319,1.9a.628.628,0,0,0,.84-.041l1.81-1.811a.626.626,0,0,0,.041-.84L19.1-65a8.416,8.416,0,0,0,.852-2.048l2.981-.294a.628.628,0,0,0,.565-.623v-2.56A.628.628,0,0,0,22.936-71.151Zm-11.185,5.37a3.467,3.467,0,0,1-3.468-3.467,3.467,3.467,0,0,1,3.468-3.467,3.467,3.467,0,0,1,3.467,3.467A3.467,3.467,0,0,1,11.751-65.781Z" fill="#fff"/></g></svg>