<svg viewBox="0 0 29 21" xmlns="http://www.w3.org/2000/svg" fill-rule="evenodd" clip-rule="evenodd" stroke-linejoin="round" stroke-miterlimit="2">
  <path d="M28 10.3v.1l-.4.4c-1.6 1.6-3.5 3.5-5.7 5a14.1 14.1 0 0 1-7.9 2.7c-6 0-9.5-3.6-13.5-7.7l-.5-.5c3-3 5-4.7 7-6a13 13 0 0 1 7-2.1c6 0 10.6 4.3 14 8.1zm-14 5.9c3.2 0 5.8-2.7 5.8-5.9S17.2 4.5 14 4.5a5.9 5.9 0 0 0-5.8 5.8c0 3.2 2.6 5.9 5.8 5.9zm-.4-8c0 1.4 1.1 2.6 2.5 2.6.5 0 1-.2 1.4-.5A3.5 3.5 0 1 1 14 6.8c-.3.4-.4.9-.4 1.4z" fill="#bebebe" fill-rule="nonzero"/>
  <path fill="#bebebe" d="M22.7 0l1.6 1.7-19 19L3.7 19z"/>
</svg>