<svg width="350" viewBox="0 0 256 59" xmlns="http://www.w3.org/2000/svg" fill-rule="evenodd" clip-rule="evenodd" stroke-linejoin="round" stroke-miterlimit="1.4">
  <path d="M17.6 3.2a7.1 7.1 0 0 1 8.4 0c1.1.8 2.5 1.2 4 1.2a7.1 7.1 0 0 1 6.7 5 6.7 6.7 0 0 0 2.4 3.3c2.5 1.8 3.5 5 2.6 8a6.7 6.7 0 0 0 0 4c1 3-.1 6.2-2.6 8-1.1.8-2 2-2.4 3.4-1 2.9-3.7 4.9-6.8 4.9-1.4 0-2.8.4-4 1.2a7.1 7.1 0 0 1-8.3 0 6.7 6.7 0 0 0-3.9-1.2c-3 0-5.8-2-6.7-5a6.7 6.7 0 0 0-2.5-3.3 7.1 7.1 0 0 1-2.5-8c.4-1.3.4-2.7 0-4-1-3 0-6.2 2.5-8 1.2-.8 2-2 2.5-3.3 1-3 3.6-5 6.7-5 1.4 0 2.8-.4 4-1.2z" fill="#2ad35a"/>
  <path d="M11 45h2c1.8 0 3.4 1.3 5.1 2.4 1.7 1 4 1.2 5.8.6 1.7-.4 3.1-1.5 4.6-2.4 1.1-.6 2.6-.6 4.1-.6v13.5l-10-3c-.5-.2-1-.2-1.4 0-2.4.6-10.1 3-10.1 3V45z" fill="#1b3b66"/>
  <path d="M22 0c2.7 0 4.7 3.2 7 3.3 1.6 0 3.2-.2 4.6.2 1.6.5 3 1.8 3.5 3.4.6 1.7.8 3.5 2 4.4 1.3 1 2.7 1.7 3.6 3 1 1.2 1.2 3 .7 4.6-.5 1.7-1.3 3.3-.9 4.7.5 1.5 1.2 3 1.2 4.4 0 1.7-.8 3.3-2.1 4.3-1.4 1-3 1.8-3.6 3.3-.5 1.5-.8 3.1-1.7 4.3a5.4 5.4 0 0 1-4.2 2.2c-1.8 0-3.5-.3-4.7.5-1.3 1-2.5 2-3.8 2.5-1.6.6-3.5.3-4.8-.6-1.5-1-2.8-2.4-4.2-2.4-1.6 0-3.2.2-4.6-.2-1.6-.5-2.9-1.8-3.4-3.4-.6-1.7-.9-3.5-2-4.4-2.7-2-5.4-4.3-4.4-7.6.5-1.6 1.4-3.2 1-4.7-1-3.1-1.8-6.6.9-8.7 1.3-1 3-1.8 3.5-3.3 1-3 2.5-6.4 6-6.5 1.6 0 3.4.3 4.7-.5C18 1.5 19.5 0 21.9 0zm-.2 2.3c-2.4 0-4 3.2-7.2 3.3-2.4 0-5.1-.1-5.9 2-.7 2-1 4.2-2.8 5.5-2 1.4-4.2 3-3.5 5.2.6 2 1.5 4 1 6-.8 2.3-1.8 4.8 0 6.2 1.8 1.3 3.7 2.4 4.4 4.3.7 2.4 1.5 5 3.8 5 2.1 0 4.2-.2 6 1 1.1.8 2.2 1.8 3.3 2.2 2.6.8 4.9-3 8.1-3.2 1.4 0 2.9.2 4-.1 2.6-.9 2.1-5.4 4.7-7.4 2-1.4 4.2-3 3.6-5.2-.7-2-1.6-4-1-6 .8-2.3 1.7-4.8-.1-6.2-1.8-1.3-3.6-2.4-4.3-4.3-.5-1.3-.7-2.8-1.4-3.8-1.6-2.2-5.9-.4-8.4-2.2-1.4-1-2.6-2.3-4.2-2.3h-.1z" fill="#1b3b66" fill-rule="nonzero"/>
  <path d="M31.7 17.3a1.6 1.6 0 0 0 .5-2.4 13 13 0 0 0-23.4 7.8 13 13 0 0 0 23.5 7.8 1.6 1.6 0 0 0-.6-2.4c-.7-.4-1.6-.2-2 .5A9.7 9.7 0 0 1 12 22.7a9.8 9.8 0 0 1 17.6-5.9c.5.7 1.4.9 2.1.5z" fill="#fff"/>
  <g>
    <path d="M75.4 36.7s-5.4.8-8 .8c-6 0-7-3-7-11 0-8.5 1.4-11.1 7-11.1 2.6 0 8 .7 8 .7l.2-4.7s-5-1.3-9-1.3c-9 0-11.8 4.9-11.8 16.4 0 10.8 2.2 16.2 11.8 16.2 3.6 0 9-1.1 9-1.1l-.2-4.9zM80.6 42.2h5.2V26.8s2.8-1.5 7-2.3v-5.6c-4 .7-7 3-7 3v-2.5h-5.2v22.8zM105.9 38c-3.7 0-5.1-1.6-5.2-5h14l.4-3.7c0-7-3.2-10.4-9.7-10.4-6.4 0-10 3.9-10 12.2 0 8 2.8 11.6 9.7 11.6 4 0 9.2-1 9.2-1v-4.1s-4.8.4-8.4.4zm-5.2-9c0-3.8 1.5-5.4 4.7-5.4S110 25 110 29h-9.3zM138.5 10.3h-5.2v9.2c-.3 0-3.4-.6-5.2-.6-6.4 0-9.5 3.6-9.5 11.8 0 8.6 2.6 12 8.7 12 2.7 0 6-1.6 6-1.6v1.1h5.2v-32zm-10.4 27.6c-2.7-.1-4.2-1.7-4.2-7.2 0-5 1.5-7 4.6-7 2 0 4.5.4 4.8.4v12.8s-3 1-5.2 1zM154 38c-3.7 0-5-1.6-5-5h14l.3-3.7c0-7-3.2-10.4-9.7-10.4-6.4 0-10 3.9-10 12.2 0 8 2.8 11.6 9.7 11.6 4 0 9.2-1 9.2-1v-4.1s-4.9.4-8.5.4zm-5-9c0-3.8 1.3-5.4 4.6-5.4 3.2 0 4.5 1.4 4.5 5.4H149zM173.6 42.2V24.7s2.4-1.1 5-1.1c3.3 0 3.8 2.2 3.8 6.6v12h5.3V30.3c0-7.7-1.6-11.4-8-11.4-2.9 0-6.1 2-6.1 2v-1.5h-5.2v22.8h5.2zM205.8 24.1v-4.7h-6.1v-6.6h-5.2v6.6h-3v4.7h3v10c0 6.7 1.6 8.7 6.8 8.7 1.6 0 4.7-.7 4.7-.7l-.3-4.4-3.7.1c-2.2 0-2.3-1.2-2.3-4.3V24h6.1zM210.2 42.2h5.2V19.4h-5.2v22.8zm0-26.5h5.2v-5.5h-5.2v5.5zM227.4 24.1h5.9v-4.7h-6v-1.3c0-3 .7-3.9 2.7-3.9l3.6.1V10s-3.4-.5-5-.5c-4.8 0-6.4 2-6.4 8.5v1.4h-2.6v4.7h2.6v18.1h5.2v-18zM234.7 19.4l6 22.8h3.8L242 52h5.1l8.6-32.6h-5.2l-4.7 17.8h-1.2l-4.7-17.8h-5.2z" fill="#1b3b66" fill-rule="nonzero"/>
  </g>
</svg>