<svg width="158" height="16" viewBox="0 0 158 16" xmlns="http://www.w3.org/2000/svg" fill-rule="evenodd" clip-rule="evenodd" stroke-linejoin="round" stroke-miterlimit="1.4">
  <g fill="#fff">
    <path d="M57 4.3H53v9h1.4V5.7H57V4.3zM58.2 4.3h1V1.9h1.2v2.4h2.3v1.3h-2.3v5.8c0 .4.5.7.8.7h1.3v1.3h-1.4a2 2 0 0 1-1.4-.6 2 2 0 0 1-.6-1.5V5.6h-.9V4.3zM37.3 13.4h6.2V12h-4.8V7.2c0-.4.2-.8.5-1.1.3-.3.7-.5 1.1-.5H42v1.3h1.4V4.3H40c-.8 0-1.5.3-2 .8s-.8 1.2-.8 2v6.3zM32 7.4l1.8-3.1h1.7l-2.7 4.5 3 4.6h-1.6L32 10l-2 3.3h-1.6L31 8.8l-1.9-3h-1V4.4h1.6L32 7.4zM46.7 9.5v2c0 .1 0 .3.2.4l.4.2h4v1.3h-4.6c-.7 0-1.3-.6-1.3-1.4V6c0-.5.2-.9.5-1.2.3-.3.7-.5 1.2-.5h2.6c.5 0 1 .2 1.2.5.4.4.6.8.6 1.3v3.4h-4.8zm0-1.2h3.5V6.4c0-.5-.4-.9-.8-.9h-1.8c-.6 0-1 .4-1 1v1.8zM14.4 0c.3 0 .6.3.6.7v13.9c0 .3-.3.6-.6.6h-1l-3-3a.3.3 0 0 0-.4 0l-1.4 1.5v.4l1.2 1.1H5.4l5.8-5.8 1.6-1.6c.1 0 .1-.3 0-.4l-2.6-2.6a.3.3 0 0 0-.4 0L8.4 6.2v.4l.9.8v.4l-7.4 7.4H.7a.7.7 0 0 1-.7-.6V.6C0 .4.3 0 .7 0h1.2l2.7 2.8H5l1.4-1.4c.1-.1.1-.3 0-.4l-1-1h4L2.2 7.2v.4L5 10.3c.1.1.3.1.4 0L6.7 9v-.4l-1-1a.3.3 0 0 1 0-.4L13 0h1.5zM26.7 4c0-1.1-1-2-2.1-2h-3.2a2 2 0 0 0-2.1 2v7.4c0 1 1 2 2 2h3.3a2 2 0 0 0 2.1-2V4zm-1.3 2.3l-4.8 4.1v1c0 .4.3.7.8.7h3.2c.4 0 .8-.3.8-.8v-5zm0-1.9V4c0-.4-.4-.7-.8-.7h-3.2c-.5 0-.8.3-.8.7v4.6l4.8-4.2z"/>
    <path d="M74.6 2.2c-1 0-1.5.4-1.5 1.1v1h3v1.6h-3v6.2h2.5v1.6h-6.3V12h2V5.9h-2V4.3h2V3c0-.5 0-.9.2-1.2.2-.3.4-.6.8-.7l1-.4 1-.1a5 5 0 0 1 2.1.4v1.6c-.6-.2-1.1-.4-1.8-.4zM84.5 4c.9 0 1.6.2 2.1.6v3.3h-1.8V6h-.3c-1 0-1.8.2-2.4.6-.5.5-.8 1.2-.8 2v3.6h2.6v1.6h-6.5V12h2V5.9h-2V4.3h3.7v1.5c.3-.5.8-1 1.4-1.2.6-.4 1.3-.5 2-.5zM91 14c-1 0-1.9-.4-2.5-1-.7-.5-1-1.2-1-2.2 0-1 .4-1.8 1.1-2.3.7-.6 1.6-.8 2.6-.8s1.8.1 2.5.5v-.6c0-1.3-.7-2-2-2-1 0-2 .4-3 1l-.5-1.5c1.1-.7 2.3-1 3.7-1 2.4 0 3.5 1.1 3.5 3.4v6.2h-1.7v-.8c-.8.7-1.7 1-2.7 1zm.3-1.7c.9 0 1.7-.4 2.4-1.1V9.8c-.7-.4-1.4-.6-2.2-.6-.6 0-1.2.2-1.6.4-.4.3-.6.7-.6 1.2 0 .4.2.8.5 1 .4.4.8.5 1.5.5zM104.9 4c.8 0 1.4.3 1.7.9.4.5.6 1.4.6 2.6v6.2h-1.7V8l-.2-1.7c-.2-.3-.4-.5-.8-.5s-.7.2-.9.6c-.2.4-.3 1-.3 1.6v5.7h-1.7V7.8c0-1.3-.4-2-1-2-.4 0-.7.2-1 .6-.2.4-.3 1-.3 1.6v5.7h-1.7V4.3h1.6v1.2c.4-1 1-1.4 1.9-1.4.4 0 .8.1 1 .4.4.3.6.6.7 1 .5-1 1.2-1.4 2.1-1.4zM117.4 8.6v1.1h-6.6c.2.8.5 1.4.9 1.9.4.4 1 .7 1.7.7a3 3 0 0 0 2.1-.9l1.1 1.2c-.9.9-2 1.3-3.2 1.3a4 4 0 0 1-3.2-1.4c-.8-.9-1.2-2-1.2-3.5s.4-2.7 1.2-3.6c.8-.9 1.8-1.3 3.2-1.3 1.1 0 2.1.4 2.8 1.1.8.8 1.2 1.9 1.2 3.4zm-6.6-.5h4.7c0-.8-.2-1.4-.6-1.8-.5-.4-1-.6-1.5-.6-.8 0-1.4.2-1.8.6a3 3 0 0 0-.8 1.8zM120.4 13.7L118 4.3h1.7l1.3 5.5.2.8c0-.5.1-.7.2-.9l1.2-5.4h1.4l1.3 5.4.1 1 .2-1 1.3-5.4h1.7l-2.4 9.4h-1.5l-1.2-5.3a58.6 58.6 0 0 0-.3-.5l-.1.5-1.2 5.3h-1.5zM136.7 12.6c-.8.9-1.9 1.3-3.3 1.3-1.3 0-2.4-.4-3.2-1.3-.8-.9-1.2-2-1.2-3.6 0-1.5.4-2.7 1.2-3.6.8-.9 1.9-1.3 3.2-1.3 1.4 0 2.5.4 3.3 1.3.8.9 1.2 2 1.2 3.6 0 1.5-.4 2.7-1.2 3.6zm-5.2-1.3c.5.6 1.1.9 2 .9.8 0 1.4-.3 1.9-.9.4-.6.6-1.3.6-2.3 0-1-.2-1.8-.6-2.3-.5-.6-1.1-.9-2-.9-.8 0-1.4.3-1.9.8-.4.6-.6 1.4-.6 2.4s.2 1.8.6 2.3zM146 4c.8 0 1.5.2 2 .6v3.3h-1.7V6h-.4c-1 0-1.7.2-2.3.6-.6.5-1 1.2-1 2v3.6h2.8v1.6h-6.6V12h2V5.9h-2V4.3h3.8v1.5c.3-.5.7-1 1.3-1.2.7-.4 1.3-.5 2-.5zM156 13.7l-2.8-5.4-1.6 1.5v3.9h-1.8V1.3l1.8-.9v7.3l3.4-3.4h2.2l-2.7 2.6 3.5 6.8h-2z" fill-rule="nonzero"/>
  </g>
</svg>