<svg viewBox="0 0 36 38" xmlns="http://www.w3.org/2000/svg" fill-rule="evenodd" clip-rule="evenodd" stroke-linejoin="round" stroke-miterlimit="1.4">
    <g fill-rule="nonzero">
        <path d="M14.3 8.2a2.2 2.2 0 0 0-1.5.7l-1.6 1.6-.2.1c-.3.4-.3.8 0 1.2l.2.2a636.4 636.4 0 0 0 1.7 1.6c.4.4.7.4 1.1 0l.2-.1 1.5-1.6.4-.5c.4-.6.4-1.2.1-1.8A2.5 2.5 0 0 0 15 8.4l-.7-.2m13 6.7l-.2-.6c-.2-.4-.5-.7-.9-1-.5-.4-1.1-.5-1.8-.3a4 4 0 0 0-1.3 1l-2.8 2.8-1.5 1.5c-.4.4-.4.8 0 1.2a47.5 47.5 0 0 0 1.7 1.8c.5.4.8.4 1.3 0v-.1l4.3-4.2a6.7 6.7 0 0 0 .7-.9c.2-.3.4-.7.4-1.2M14 0c1.6 0 3.1.5 4.5 1.3a11.4 11.4 0 0 1 4 4.2c.2.3.5.4.9.3l1.4-.3c1.6-.2 3 0 4.5.7a12 12 0 0 1 5.3 5.1 8 8 0 0 1 0 7.6 12.2 12.2 0 0 1-2.2 3.3l-4 4-5.7 5.6-.3.3c-.4.3-.7.4-1 0-.2 0-.3-.2-.5-.3L10.1 21 .5 11.5a3.6 3.6 0 0 1-.4-.5c-.2-.2-.1-.5 0-.8l.3-.3 7-7C8.5 2 9.8 1 11.2.5A8 8 0 0 1 14 0" fill="#1413C1"/>
        <path d="M16.6 37.4c-.2 0-.4 0-.5-.2-.2 0-.3-.2-.4-.3A59833.6 59833.6 0 0 1 2 23l-.4-.5c-.3-.3-.3-.8 0-1A21.9 21.9 0 0 1 2.9 20c.4-.3.8-.2 1.1 0l.4.4 13.9 13.9.3.4c.3.3.3.7 0 1l-.6.7-.7.7c-.2.2-.4.3-.7.3" fill="url(#gradient)"/>
    </g>
    <defs>
        <linearGradient id="gradient" x2="1" gradientUnits="userSpaceOnUse" gradientTransform="rotate(44.5 -24.6 13.9) scale(19.5237)">
            <stop offset="0" stop-color="#cf09c5"/>
            <stop offset="1" stop-color="#ff3568"/>
        </linearGradient>
    </defs>
</svg>
