<svg width="36" viewBox="0 0 33 29" xmlns="http://www.w3.org/2000/svg" fill-rule="evenodd" clip-rule="evenodd" stroke-linejoin="round" stroke-miterlimit="1.4">
    <path d="M1.8 0L0 4.6 1.1 10l-.7.2 1 .7-.7.6.8.8-.7.5 1.4 1.7 6.8-2 4.6-4L1.8 0zm28.7 0l1.8 4.6-1 5.5.7.2-1 .7.6.6-.7.8.6.5-1.3 1.7-6.8-2-4.6-4L30.5 0z" fill="#814718"/>
    <path d="M0 21.4l2.2-6.8 6.7-2-2 2.8 2.8 5.8-9.7.2zm32.3 0l-2.1-6.8-6.8-2 2.1 2.9-2.8 5.7 9.6.2z" fill="#f8911e"/>
    <path d="M2.1 28.5l-2-7 5.7-.3 3.3 5-7 2.3zm28.1 0l2.1-7-5.8-.3-3.3 5 7 2.3z" fill="#e8811e"/>
    <path d="M9.6 21.1H5.8l3.3 5.2.5-5.2zm13.1 0h3.8l-3.3 5.2-.5-5.2z" fill="#d46c17"/>
    <path d="M13.7 23.2l-4-2-.6 5.1 4.6-3zm5 0l4-2.1.5 5.2-4.6-3.2z" fill="#e8821f"/>
    <path d="M11.6 4L1.8 0l11.8 8.6-2-4.6zm9 0l10-4-11.8 8.6L20.7 4z" fill="#e9821f"/>
    <path d="M14.2 15.4H6.8L9 12.8l4.7-4.1.6 6.8zm3.9 0h7.4l-2-2.8-4.7-4-.7 6.8z" fill="#e8821f"/>
    <path d="M9.6 21l.2-3-3-2.5L9.7 21zm13.1.1l-.2-3 3-2.6-2.8 5.6z" fill="#e88023"/>
    <path d="M14.1 15.4l-.8 3.4 1.2 3.8-.4-7.2zm4.1 0l.9 3.4-1.3 3.8.4-7.2z" fill="#e88123"/>
    <path d="M13.6 27.4L9 26.3l2 1.2 3 1.1-.5-1.2zm5.2 0l4.4-1.1-2 1.2-3 1.1.6-1.2z" fill="#c8b6a9"/>
    <path d="M13.7 23.2l-.1 4.2L9 26.3l4.6-3zm5 0v4.2l4.5-1.1-4.5-3.1z" fill="#dcc8bb"/>
    <path d="M11.6 4h9.1l-2 4.6-.9 14.2h-3.3l-1-14.2-2-4.6z" fill="#f8911e"/>
    <path d="M14.2 28.6h4l.6-1.1.2-1.6-.6-.4H14l-.6.4.1 1.5.7 1.2z" fill="#c8b6a9"/>
    <path d="M6.9 15.5l7.2-.2-.8 3.6-.9-1.9-2.5 1.2-3-2.7zm18.6 0l-7.3-.2.8 3.6 1-1.9 2.5 1.2 3-2.7z" fill="#d46c17"/>
    <path d="M9.8 18l3.6.9.5 1.5.7 2.2-.9.6-4.2-2 .3-3.1zm12.7 0l-3.6.9-1.1 3.8.8.5 4.1-2-.2-3.1z" fill="#f8911e"/>
    <path d="M13.4 26l.6-.5h4.4l.6.4-.3-2.7-.7-.6h-3.4l-.9.6-.3 2.8z" fill="#181818"/>
    <path d="M12.4 16.9L9.8 18l3.6.9-1-2.1zm7.5 0l2.6 1.2-3.6.9 1-2.1z" fill="#233447"/>
</svg>
