<svg xmlns="http://www.w3.org/2000/svg" width="30.465" height="43.16" viewBox="0 0 30.465 43.16"><g transform="translate(-0.1 70.881)"><path d="M30.018-56.727c0,1.439-2.311,2.5-2.732,3.8-.436,1.346.8,3.556-.019,4.677a2.965,2.965,0,0,1-2.051.839,5.648,5.648,0,0,0-2.392.622c-1.1.8-1.4,3.236-2.678,3.745a.793.793,0,0,1-.082.031c-1.3.423-3.015-1.432-4.454-1.432s-3.155,1.856-4.454,1.434a.791.791,0,0,1-.082-.031c-1.277-.51-1.582-2.948-2.678-3.746A5.648,5.648,0,0,0,6-47.416a2.965,2.965,0,0,1-2.051-.839c-.815-1.121.417-3.331-.019-4.677-.421-1.3-2.732-2.356-2.732-3.8s2.311-2.5,2.732-3.8c.437-1.346-.8-3.556.019-4.677s3.312-.637,4.443-1.461S9.809-70,11.155-70.438C12.454-70.86,14.17-69,15.609-69s3.155-1.856,4.454-1.434c1.346.438,1.641,2.962,2.76,3.777s3.62.33,4.443,1.461-.417,3.331.019,4.677C27.707-59.223,30.018-58.166,30.018-56.727Z" transform="translate(-0.276)" fill="#7de5fd" stroke="#5f5f5f" stroke-linecap="round" stroke-linejoin="round" stroke-width="0.8"/><path d="M19.688-44.725a8.688,8.688,0,0,0,8.688-8.688A8.688,8.688,0,0,0,19.688-62.1,8.688,8.688,0,0,0,11-53.412,8.688,8.688,0,0,0,19.688-44.725Z" transform="translate(-4.143 -3.315)" fill="#fff" stroke="#5f5f5f" stroke-linecap="round" stroke-linejoin="round" stroke-width="0.8"/><path d="M22.235-56.5l1.611,3.393,3.706.492-2.71,2.589.68,3.7-3.286-1.793-3.286,1.793.68-3.7-2.71-2.589,3.706-.492Z" transform="translate(-6.478 -5.524)" fill="#fff" stroke="#5f5f5f" stroke-linecap="round" stroke-linejoin="round" stroke-width="0.8"/><path d="M6.333-32.233.5-16.63l5.57-2.546,2.9,6.155,6.152-16.316c-1.394.159-3.01,1.823-4.247,1.422a.793.793,0,0,1-.082-.031c-1.277-.51-1.582-2.948-2.678-3.746A4.065,4.065,0,0,0,6.333-32.233Zm18,0,5.833,15.6-5.57-2.546-2.9,6.155-6.1-16.31c1.382.195,2.971,1.811,4.192,1.414a.791.791,0,0,0,.082-.031c1.277-.509,1.582-2.947,2.678-3.745A4.06,4.06,0,0,1,24.332-32.233Z" transform="translate(0 -15.1)" fill="#7de5fd" stroke="#5f5f5f" stroke-linecap="round" stroke-linejoin="round" stroke-width="0.8"/></g></svg>