<svg xmlns="http://www.w3.org/2000/svg" width="25.426" height="35.964" viewBox="0 0 25.426 35.964"><g transform="translate(-0.1 70.884)"><path d="M25.122-59.067c0,1.195-1.918,2.072-2.268,3.151-.362,1.118.661,2.952-.016,3.882a2.462,2.462,0,0,1-1.7.7,4.689,4.689,0,0,0-1.986.517c-.91.663-1.163,2.686-2.223,3.109a.657.657,0,0,1-.068.026c-1.079.351-2.5-1.189-3.7-1.189s-2.619,1.54-3.7,1.19A.656.656,0,0,1,9.4-47.71c-1.06-.424-1.313-2.447-2.223-3.11a4.689,4.689,0,0,0-1.986-.517,2.462,2.462,0,0,1-1.7-.7c-.677-.93.346-2.765-.016-3.882C3.118-56.994,1.2-57.872,1.2-59.067s1.918-2.072,2.268-3.151c.362-1.118-.661-2.952.016-3.882s2.749-.529,3.688-1.213,1.174-2.772,2.291-3.136c1.079-.35,2.5,1.19,3.7,1.19s2.619-1.54,3.7-1.19c1.117.363,1.362,2.459,2.291,3.136s3.005.274,3.688,1.213-.346,2.765.016,3.882C23.2-61.139,25.122-60.261,25.122-59.067Z" transform="translate(-0.348)" fill="#fff" stroke="#434552" stroke-linecap="round" stroke-linejoin="round" stroke-width="0.8"/><path d="M18.212-47.676a7.212,7.212,0,0,0,7.212-7.212A7.212,7.212,0,0,0,18.212-62.1,7.212,7.212,0,0,0,11-54.888,7.212,7.212,0,0,0,18.212-47.676Z" transform="translate(-5.223 -4.178)" fill="#fff" stroke="#434552" stroke-linecap="round" stroke-linejoin="round" stroke-width="0.8"/><path d="M21.332-56.5l1.337,2.816,3.076.409L23.5-51.126l.564,3.069-2.728-1.488L18.6-48.057l.564-3.069-2.25-2.149,3.076-.409Z" transform="translate(-8.167 -6.964)" fill="#fff" stroke="#434552" stroke-linecap="round" stroke-linejoin="round" stroke-width="0.8"/><path d="M5.342-32.233.5-19.28l4.624-2.114,2.41,5.109L12.642-29.83c-1.157.132-2.5,1.514-3.526,1.18a.658.658,0,0,1-.068-.026c-1.06-.424-1.313-2.447-2.223-3.11A3.374,3.374,0,0,0,5.342-32.233Zm14.941,0L25.126-19.28,20.5-21.394l-2.41,5.109L13.03-29.824c1.147.162,2.467,1.5,3.48,1.174a.657.657,0,0,0,.068-.026c1.06-.423,1.313-2.446,2.223-3.109A3.37,3.37,0,0,1,20.284-32.233Z" transform="translate(0 -19.035)" fill="#fff" stroke="#434552" stroke-linecap="round" stroke-linejoin="round" stroke-width="0.8"/></g></svg>