<svg xmlns="http://www.w3.org/2000/svg" width="43.571" height="35.056" viewBox="0 0 43.571 35.056"><g transform="translate(-364.5 -127.5)"><path d="M69.5-504.543v0ZM41.943-493.8s2.832,7.264,13.78,7.264S69.5-493.8,69.5-493.8v-10.739c-1.852,1.116-3.713,2.239-5.007,3.023-3.16,1.914-8.7,4.3-8.7,4.8l-13.855-7.876Z" transform="translate(329.745 648.451)" fill="#fff" stroke="#5f5f5f" stroke-linejoin="round" stroke-width="1"/><path d="M69.5-505.049V-493.8s-2.832,7.264-13.78,7.264-13.78-7.264-13.78-7.264v-10.789L55.8-496.718c0-.506,5.537-2.887,8.7-4.8,1.294-.784,3.155-1.907,5.007-3.022Z" transform="translate(329.745 648.451)" fill="none" stroke="#5f5f5f" stroke-linecap="round" stroke-linejoin="round" stroke-width="1"/><path d="M82.322-483.4c3.288,0,1.622-2.044,1.622-2.044l-1.622-2.044L80.7-485.442S79.034-483.4,82.322-483.4Z" transform="translate(323.206 645.455)" fill="none" stroke="#5f5f5f" stroke-linecap="round" stroke-linejoin="round" stroke-width="1"/><path d="M33.88-511.35l20.281,12.268s5.537-3.393,8.7-5.308c3.59-2.175,11.549-6.96,11.549-6.96L54.161-523.618Z" transform="translate(331.121 651.619)" fill="#fff" stroke="#5f5f5f" stroke-linejoin="round" stroke-width="1"/><path d="M74.407-511.35s-7.96,4.784-11.549,6.959c-3.16,1.915-8.7,5.309-8.7,5.309L33.88-511.35l20.282-12.269Z" transform="translate(331.121 651.619)" fill="#e5e5e5" stroke="#5f5f5f" stroke-linecap="round" stroke-linejoin="round" stroke-width="1"/><path d="M82.742-508.827v17.71" transform="translate(322.785 649.096)" fill="none" stroke="#5f5f5f" stroke-linecap="round" stroke-linejoin="round" stroke-width="1"/></g></svg>