<svg width="28" viewBox="0 0 32 45" xmlns="http://www.w3.org/2000/svg" fill-rule="evenodd" clip-rule="evenodd" stroke-linejoin="round" stroke-miterlimit="1.4">
  <path d="M12.2 2.8a6.3 6.3 0 0 1 7.4 0c.4.3.9.4 1.3.4 2.8 0 5.2 1.8 6 4.4a2.3 2.3 0 0 0 .9 1.2 6.3 6.3 0 0 1 2.3 7c-.2.5-.2 1 0 1.4.8 2.6-.1 5.5-2.3 7l-.9 1.2a6.3 6.3 0 0 1-6 4.4c-.4 0-1 .2-1.3.4a6.3 6.3 0 0 1-7.4 0c-.4-.2-.9-.4-1.4-.4a6.3 6.3 0 0 1-6-4.4c-.1-.4-.4-.8-.8-1.1a6.3 6.3 0 0 1-2.3-7v-1.5c-.9-2.6 0-5.4 2.3-7 .4-.3.7-.7.8-1.2a6.3 6.3 0 0 1 6-4.4c.5 0 1-.1 1.4-.4z" fill="#2ad35a"/>
  <path d="M8 32.8h1.5c1.3 0 2.4 1 3.7 1.7 1.2.7 2.8.8 4.2.5 1.2-.4 2.3-1.2 3.4-1.8.8-.5 1.8-.5 3-.5v12l-7.4-2.2h-1L8 44.8v-12z" fill="#fff"/>
  <path d="M16 0c2 0 3.4 2.4 5.1 2.4 1.2 0 2.3-.1 3.3.2A4 4 0 0 1 27 5c.4 1.3.6 2.6 1.4 3.2 1 .7 2 1.3 2.6 2.1.7 1 1 2.3.6 3.4-.4 1.3-1 2.4-.7 3.5.4 1 .9 2.1.9 3.2a4 4 0 0 1-1.6 3.1c-1 .8-2.2 1.3-2.5 2.4-.4 1-.6 2.3-1.3 3.1a4 4 0 0 1-3 1.6c-1.3 0-2.6-.2-3.5.4-1 .7-1.8 1.5-2.8 1.8a4 4 0 0 1-3.4-.5c-1.1-.7-2-1.6-3-1.7-1.2 0-2.4.2-3.4-.1A4 4 0 0 1 4.8 28c-.4-1.2-.6-2.5-1.5-3.2-1.9-1.4-3.9-3.1-3.2-5.5.4-1.2 1-2.3.7-3.4-.7-2.3-1.3-4.9.7-6.4 1-.7 2.2-1.3 2.6-2.4.7-2.2 1.8-4.6 4.3-4.7 1.2 0 2.5.2 3.4-.4 1.4-1 2.4-2 4.2-2zm-.2 1.7C14.1 1.7 13 4 10.6 4 9 4 7 4 6.3 5.6c-.5 1.4-.7 3-2 4-1.4 1-3 2-2.6 3.7.5 1.5 1.1 2.9.7 4.4-.5 1.6-1.2 3.5.1 4.5s2.6 1.7 3.1 3.1C6.2 27 6.7 29 8.4 29c1.6 0 3-.2 4.4.7.8.6 1.6 1.3 2.4 1.6 2 .6 3.6-2.3 6-2.3 1 0 2 .1 2.8-.1 2-.7 1.6-4 3.4-5.4 1.5-1 3.1-2.1 2.6-3.7-.4-1.5-1-3-.7-4.4.6-1.7 1.3-3.6 0-4.6C28 10 26.5 9.1 26 7.7c-.3-1-.5-2-1-2.7-1.2-1.7-4.3-.4-6.1-1.6-1-.7-2-1.7-3-1.7h-.2z" fill="#fff" fill-rule="nonzero"/>
  <path d="M23 12.6a1.2 1.2 0 0 0 .5-1.8 9.5 9.5 0 0 0-17.1 5.7 9.5 9.5 0 0 0 17 5.7 1.2 1.2 0 0 0-.3-1.7c-.6-.3-1.2-.2-1.5.3a7 7 0 0 1-12.8-4.3 7.1 7.1 0 0 1 12.8-4.3c.3.5 1 .7 1.5.4z" fill="#fff"/>
</svg>