<svg xmlns="http://www.w3.org/2000/svg" width="42.971" height="42.971" viewBox="0 0 42.971 42.971"><g transform="translate(4.477 24.465) rotate(-14)" opacity="0.518"><path d="M23.683-16A10.766,10.766,0,0,0,12.918-5.235,10.821,10.821,0,0,0,13.1-3.263L0,9.836v6.459a2.154,2.154,0,0,0,2.153,2.153H4.306V16.295H8.612V11.989h4.306V7.683h4.306l2.795-2.795a10.765,10.765,0,0,0,3.664.642A10.766,10.766,0,0,0,34.448-5.235,10.766,10.766,0,0,0,23.683-16ZM26.908-5.231A3.231,3.231,0,0,1,23.679-8.46a3.231,3.231,0,0,1,3.229-3.229A3.231,3.231,0,0,1,30.138-8.46,3.231,3.231,0,0,1,26.908-5.231Z" fill="#bebebe" stroke="#707070" stroke-width="1"/></g></svg>