<svg xmlns="http://www.w3.org/2000/svg" width="29.915" height="43.801" viewBox="0 0 29.915 43.801"><g transform="translate(-0.1 85.901)"><path d="M28.842-38.573a2.262,2.262,0,0,0,1.072,2.842c-.831,1.736-3.527,3.22-6.3,3.22s-5.722-1.5-6.3-3.22a2.2,2.2,0,0,0,1.06-2.842h10.46Z" transform="translate(-8.561 -23.34)" fill="#fff" stroke="#585858" stroke-linecap="round" stroke-linejoin="round" stroke-width="0.8"/><path d="M21.311-55.52h-1.6a5.049,5.049,0,0,1-3.694-1.652L14.8-58.458a10.7,10.7,0,0,1-2.793-7.268v-6.767c0-9.08,16.991-9.08,16.991,0v6.767a10.7,10.7,0,0,1-2.792,7.268l-1.2,1.29A5.047,5.047,0,0,1,21.311-55.52Z" transform="translate(-5.448 -2.934)" fill="#fff" stroke="#585858" stroke-linecap="round" stroke-linejoin="round" stroke-width="0.8"/><path d="M10.232-56.037v-3.7c0-1.233-.886-1.645-1.43-1.233-.87.629.239,3.291.239,3.291C8.4-57.255,9.124-55.737,10.232-56.037ZM27.426-56.5v-3.7c0-1.234.881-1.645,1.43-1.234.87.629-.239,3.29-.239,3.29C29.265-57.721,28.535-56.2,27.426-56.5Z" transform="translate(-3.772 -11.883)" fill="#fff" stroke="#585858" stroke-linecap="round" stroke-linejoin="round" stroke-width="0.8"/><path d="M23.628-84.779c2.88,1.312,6.725,4.976,5.148,10.382-.232.8-.568.521-.942.449,0,0-.06-3.154-1.494-2.829-3.414.771-5.1-2.179-9.243,1.055-.575-1.015-.179-3.323,1.281-4.535-3.418,0-7.729,2.251-7.729,4.956a3.528,3.528,0,0,1-1.237-1.8c-.43-4.037,1.5-6.092,4.87-7.633C17.027-85.99,22.093-85.478,23.628-84.779Z" transform="translate(-4.191 0)" fill="#fff" stroke="#585858" stroke-linecap="round" stroke-linejoin="round" stroke-width="0.8"/><path d="M37.5-58.052a.7.7,0,0,1,.7.7.7.7,0,0,1-.7.7.7.7,0,0,1-.7-.7A.7.7,0,0,1,37.5-58.052Z" transform="translate(-17.974 -13.581)" fill="#fff" stroke="#585858" stroke-linecap="round" stroke-linejoin="round" stroke-width="0.8"/><path d="M19.793-58.052a.7.7,0,0,1,.7.7.7.7,0,0,1-.7.7.7.7,0,0,1-.7-.7A.7.7,0,0,1,19.793-58.052Z" transform="translate(-9.206 -13.581)" fill="#fff" stroke="#585858" stroke-linecap="round" stroke-linejoin="round" stroke-width="0.8"/><path d="M23.719-32.257s-2.586-1.06-2.486-1c-.812,1.791-3.547,3.334-6.175,3.334s-5.578-1.543-6.183-3.314L6.5-32.218a9.945,9.945,0,0,0-6,9.173v7.038H29.615v-7.117A9.946,9.946,0,0,0,23.719-32.257Z" transform="translate(0 -26.493)" fill="#dbdbdb" stroke="#585858" stroke-linecap="round" stroke-linejoin="round" stroke-width="0.8"/><path d="M14.224-22.07V-29.15M29.349-22.07V-29.15m-5.4-16.506a3.6,3.6,0,0,1-2.377,1.4,3.6,3.6,0,0,1-2.377-1.4" transform="translate(-6.496 -20.626)" fill="#fff" stroke="#585858" stroke-linecap="round" stroke-linejoin="round" stroke-width="0.8"/></g></svg>