<svg xmlns="http://www.w3.org/2000/svg" width="43" height="43" viewBox="0 0 43 43"><g transform="translate(0.5 81.499)"><path d="M40.991-63.4l-5.328-.525a15.039,15.039,0,0,0-1.522-3.66l3.4-4.145a1.123,1.123,0,0,0-.075-1.5l-3.236-3.237a1.121,1.121,0,0,0-1.5-.074l-4.145,3.4a15.05,15.05,0,0,0-3.661-1.522L24.4-79.99A1.123,1.123,0,0,0,23.288-81H18.713A1.124,1.124,0,0,0,17.6-79.99l-.524,5.331a14.971,14.971,0,0,0-3.658,1.522L9.27-76.54a1.113,1.113,0,0,0-.71-.254,1.112,1.112,0,0,0-.791.328L4.534-73.23a1.123,1.123,0,0,0-.075,1.5l3.4,4.146a14.983,14.983,0,0,0-1.522,3.659L1.01-63.4A1.122,1.122,0,0,0,0-62.287v4.576A1.118,1.118,0,0,0,1.01-56.6l5.331.525a14.972,14.972,0,0,0,1.522,3.658L4.46-48.27a1.119,1.119,0,0,0,.073,1.5l3.236,3.237a1.122,1.122,0,0,0,1.5.074l4.145-3.4a15.058,15.058,0,0,0,3.661,1.523l.524,5.33A1.123,1.123,0,0,0,18.713-39h4.575A1.119,1.119,0,0,0,24.4-40.008l.524-5.329a14.949,14.949,0,0,0,3.661-1.524l4.145,3.4a1.122,1.122,0,0,0,1.5-.074l3.236-3.237a1.119,1.119,0,0,0,.073-1.5l-3.4-4.144a15.04,15.04,0,0,0,1.522-3.659L40.99-56.6A1.122,1.122,0,0,0,42-57.711v-4.576A1.122,1.122,0,0,0,40.991-63.4ZM21-53.8A6.2,6.2,0,0,1,14.8-60,6.2,6.2,0,0,1,21-66.2,6.2,6.2,0,0,1,27.2-60,6.2,6.2,0,0,1,21-53.8Z" transform="translate(0 0)" fill="#fff" stroke="#676262" stroke-linecap="round" stroke-linejoin="round" stroke-width="1"/></g></svg>